<svg width="61" height="28" viewBox="0 0 61 28" fill="none" xmlns="http://www.w3.org/2000/svg">
<path fill-rule="evenodd" clip-rule="evenodd" d="M17.5684 7.5365H7.77301V11.7463H16.7707V15.2828H7.77301V20.4635H18V24H4V4H17.5684V7.5365ZM24.6546 17.6474C24.6805 18.7039 25.1915 20.716 28.5162 20.716C30.3208 20.716 32.3325 20.2651 32.3325 18.253C32.3325 16.7725 30.9612 16.3755 29.0272 15.8977L27.0673 15.4266L27.0633 15.4257C24.1152 14.7127 21.2717 14.025 21.2717 9.84791C21.2717 7.73486 22.3648 4 28.2898 4C33.8849 4 35.3855 7.80888 35.4114 10.1373H31.7503C31.6468 9.28937 31.3428 7.27725 28.0116 7.27725C26.5627 7.27725 24.8357 7.8358 24.8357 9.55182C24.8357 11.0323 26.0065 11.3486 26.7697 11.537L31.2199 12.6743C33.7102 13.3069 36 14.3701 36 17.782C36 23.4953 30.4049 24 28.8072 24C22.1449 24 21 20.0027 21 17.6541H24.6546V17.6474ZM57 14C57 5.08345 50.4757 4 48 4C45.5177 4 39 5.08345 39 14C39 22.9166 45.5243 24 48 24C50.4757 24 57 22.9166 57 14ZM53.0907 13.9933C53.0907 19.3096 50.1106 20.6353 48 20.6353C45.8827 20.6353 42.9093 19.3163 42.9159 13.9933C42.9159 8.67698 45.8827 7.35128 48 7.35128C50.1173 7.35128 53.0907 8.67698 53.0907 13.9933Z" fill="#FFBF22"/>
</svg>
